<mxfile host="app.diagrams.net" modified="2023-06-07T14:34:59.481Z" agent="Mozilla/5.0 (Macintosh; Intel Mac OS X 10_15_7) AppleWebKit/537.36 (KHTML, like Gecko) Chrome/113.0.0.0 Safari/537.36" version="21.3.4" etag="2PSNguh6b43jmLpiHCua" type="github">
  <diagram name="Page-1" id="wL2bYqE6EQT1f358AxNF">
    <mxGraphModel>
      <root>
        <mxCell id="0" />
        <mxCell id="1" parent="0" />
      </root>
    </mxGraphModel>
  </diagram>
</mxfile>
